<svg width="24" height="24" viewBox="0 0 24 24" fill="none" xmlns="http://www.w3.org/2000/svg">
<path d="M7 21C6.46957 21 5.96086 20.7893 5.58579 20.4142C5.21071 20.0391 5 19.5304 5 19V4C5 3.44772 5.44772 3 6 3H13.5858C13.851 3 14.1054 3.10536 14.2929 3.29289L18.7071 7.70711C18.8946 7.89464 19 8.149 19 8.41421V19C19 19.5304 18.7893 20.0391 18.4142 20.4142C18.0391 20.7893 17.5304 21 17 21H7Z" stroke="black" stroke-linecap="round" stroke-linejoin="round"/>
<path d="M10.2695 11.3864C10.2718 10.9123 10.7865 10.6185 11.1959 10.8575L13.1886 12.0208C13.5981 12.2598 13.5952 12.8525 13.1835 13.0875L11.1797 14.2316C10.7679 14.4667 10.2561 14.1679 10.2584 13.6938L10.2695 11.3864Z" stroke="black" stroke-width="0.768227"/>
</svg>
